<svg width="35" height="35" viewBox="0 0 35 35" fill="none" xmlns="http://www.w3.org/2000/svg">
<circle cx="17.7832" cy="17.5907" r="17.1527" fill="url(#paint0_linear_2_19)"/>
<g clip-path="url(#clip0_2_19)">
<path d="M13.7485 15.4279L13.9995 14.9884L14.0608 15.0374L13.7485 15.4279ZM13.7485 15.4279L13.3533 15.1118L13.3143 15.1799L13.7485 15.4279ZM21.2464 15.4279L21.6418 15.1119L21.6807 15.1802L21.2464 15.4279ZM21.2464 15.4279L20.9956 14.9882L20.9343 15.0372L21.2464 15.4279ZM9.37681 14.7957L9.3547 14.5056L9.09151 14.3815C8.88909 14.2861 8.71601 14.138 8.59034 13.9528C8.46467 13.7677 8.39101 13.5522 8.37706 13.3288C8.36312 13.1054 8.40939 12.8824 8.51105 12.6831L8.06562 12.4559L8.51105 12.6831C8.61271 12.4837 8.76603 12.3153 8.955 12.1954C9.14397 12.0755 9.36166 12.0085 9.58534 12.0015C9.80903 11.9945 10.0305 12.0476 10.2266 12.1554C10.4228 12.2632 10.5864 12.4216 10.7003 12.6142C10.8143 12.8067 10.8744 13.0262 10.8746 13.2498C10.8745 13.3114 10.8696 13.3728 10.8599 13.4336L10.8139 13.7211L11.0413 13.903L13.4362 15.8184L13.8928 16.1835L14.1827 15.6758L16.4244 11.7506L16.5692 11.4971L16.4197 11.2465C16.3078 11.059 16.2491 10.8446 16.2496 10.6263V10.625C16.2496 10.2935 16.3813 9.97554 16.6158 9.74112L16.2622 9.38756L16.6158 9.74112C16.8502 9.5067 17.1681 9.375 17.4996 9.375C17.8312 9.375 18.1491 9.5067 18.3835 9.74112L18.7371 9.38756L18.3835 9.74112C18.6179 9.97554 18.7496 10.2935 18.7496 10.625L18.7496 10.6263C18.7502 10.8448 18.6912 11.0593 18.5791 11.2468L18.4291 11.4975L18.5738 11.7512L20.8121 15.6756L21.1017 16.1835L21.5585 15.8185L23.9569 13.9023L24.1837 13.721L24.1387 13.4342C24.1292 13.3736 24.1245 13.3123 24.1246 13.251V13.2503C24.1247 13.0265 24.1849 12.8068 24.2989 12.6142C24.4129 12.4216 24.5765 12.2632 24.7726 12.1554C24.9688 12.0476 25.1902 11.9945 25.4139 12.0015C25.6376 12.0085 25.8553 12.0755 26.0443 12.1954C26.2332 12.3153 26.3866 12.4837 26.4882 12.6831C26.5899 12.8824 26.6362 13.1054 26.6222 13.3288C26.6083 13.5522 26.5346 13.7677 26.4089 13.9528C26.2833 14.138 26.1102 14.2861 25.9078 14.3815L25.6446 14.5056L25.6225 14.7957L24.9113 24.125H10.088L9.37681 14.7957ZM10.8064 22.9165L10.8445 23.375H11.3046H23.6946H24.1547L24.1929 22.9165L24.8317 15.2427L24.9279 14.0861L24.0213 14.8106L20.8853 17.3165L17.934 12.1422L17.5 11.3813L17.0655 12.1418L14.1092 17.3165L10.9782 14.8117L10.0712 14.0861L10.1676 15.2436L10.8064 22.9165ZM24.8746 26V26.75H10.1246V26H24.8746Z" fill="#FBD00A" stroke="#FBD00A"/>
</g>
<defs>
<linearGradient id="paint0_linear_2_19" x1="13.495" y1="-21.3327" x2="17.7832" y2="34.7433" gradientUnits="userSpaceOnUse">
<stop stop-color="#F5ECBA"/>
<stop offset="1" stop-color="white" stop-opacity="0.26"/>
</linearGradient>
<clipPath id="clip0_2_19">
<rect width="21" height="21" fill="white" transform="translate(6.99963 8)"/>
</clipPath>
</defs>
</svg>
