<svg width="36" height="37" viewBox="0 0 36 37" fill="none" xmlns="http://www.w3.org/2000/svg">
<circle cx="17.7832" cy="18.6549" r="17.7832" fill="url(#paint0_linear_2_14)"/>
<path d="M27.3525 17.5648C27.3554 16.8599 27.1653 16.1668 26.8016 15.5557C26.4378 14.9446 25.9133 14.4372 25.2811 14.0848C25.2966 13.9117 25.2966 13.7378 25.2811 13.5648C25.2811 12.7691 24.9537 12.006 24.371 11.4434C23.7883 10.8808 22.998 10.5648 22.1739 10.5648H21.9875C21.815 10.1031 21.5279 9.68929 21.1512 9.3597C20.7745 9.03011 20.3199 8.79479 19.8271 8.67436C19.3343 8.55393 18.8184 8.55207 18.3247 8.66895C17.831 8.78583 17.3745 9.01788 16.9953 9.34475C16.6161 9.01788 16.1597 8.78583 15.666 8.66895C15.1723 8.55207 14.6564 8.55393 14.1636 8.67436C13.6708 8.79479 13.2162 9.03011 12.8395 9.3597C12.4628 9.68929 12.1757 10.1031 12.0032 10.5648H11.8168C10.9927 10.5648 10.2024 10.8808 9.61969 11.4434C9.03699 12.006 8.70963 12.7691 8.70963 13.5648C8.69404 13.7378 8.69404 13.9117 8.70963 14.0848C8.12182 14.4055 7.62413 14.8602 7.25988 15.4091C6.89563 15.9581 6.67586 16.5846 6.6197 17.2343C6.56354 17.884 6.6727 18.537 6.93767 19.1367C7.20264 19.7363 7.61539 20.2643 8.13999 20.6747C7.80055 21.286 7.63157 21.972 7.64962 22.6654C7.66768 23.3587 7.87215 24.0356 8.24296 24.6296C8.61378 25.2237 9.1382 25.7144 9.76474 26.0537C10.3913 26.3929 11.0984 26.569 11.8168 26.5648H12.0032C12.1757 27.0264 12.4628 27.4402 12.8395 27.7698C13.2162 28.0994 13.6708 28.3347 14.1636 28.4551C14.6564 28.5756 15.1723 28.5774 15.666 28.4606C16.1597 28.3437 16.6161 28.1116 16.9953 27.7847C17.3745 28.1116 17.831 28.3437 18.3247 28.4606C18.8184 28.5774 19.3343 28.5756 19.8271 28.4551C20.3199 28.3347 20.7745 28.0994 21.1512 27.7698C21.5279 27.4402 21.815 27.0264 21.9875 26.5648H22.1739C22.8879 26.5604 23.5885 26.378 24.2079 26.0352C24.8274 25.6924 25.3445 25.2008 25.7092 24.6082C26.074 24.0156 26.2739 23.342 26.2896 22.6529C26.3053 21.9637 26.1363 21.2823 25.7989 20.6747C26.282 20.3013 26.6723 19.8281 26.9412 19.2899C27.21 18.7518 27.3506 18.1623 27.3525 17.5648ZM15.9596 15.1148C15.7341 14.9902 15.4985 14.8832 15.2553 14.7948C14.9944 14.7099 14.7092 14.7286 14.4625 14.8467C14.2159 14.9649 14.0279 15.1728 13.94 15.4248C13.8521 15.6767 13.8715 15.9521 13.9938 16.1902C14.1162 16.4284 14.3315 16.6099 14.5925 16.6948C14.9912 16.8339 15.336 17.0878 15.5805 17.4222C15.825 17.7567 15.9573 18.1554 15.9596 18.5648V20.1148C15.7341 19.9902 15.4985 19.8832 15.2553 19.7948C14.9944 19.7099 14.7092 19.7286 14.4625 19.8467C14.2159 19.9649 14.0279 20.1728 13.94 20.4248C13.8521 20.6767 13.8715 20.9521 13.9938 21.1902C14.1162 21.4284 14.3315 21.6099 14.5925 21.6947C14.9912 21.8339 15.336 22.0878 15.5805 22.4222C15.825 22.7567 15.9573 23.1554 15.9596 23.5647V25.5648C15.9596 25.83 15.8505 26.0843 15.6563 26.2719C15.462 26.4594 15.1986 26.5648 14.9239 26.5648C14.7235 26.5635 14.5278 26.5061 14.3606 26.3996C14.1933 26.2931 14.0616 26.1421 13.9814 25.9648C14.1551 25.8664 14.3212 25.7561 14.4786 25.6348C14.5833 25.5507 14.6698 25.4476 14.7333 25.3312C14.7967 25.2149 14.8358 25.0876 14.8483 24.9567C14.8608 24.8257 14.8465 24.6937 14.8062 24.5681C14.7658 24.4425 14.7002 24.3259 14.6132 24.2247C14.5262 24.1236 14.4193 24.0401 14.2988 23.9788C14.1783 23.9175 14.0465 23.8798 13.9109 23.8677C13.7753 23.8557 13.6386 23.8695 13.5085 23.9084C13.3784 23.9474 13.2576 24.0107 13.1528 24.0948C12.7789 24.3987 12.3056 24.5652 11.8168 24.5647C11.2674 24.5647 10.7405 24.354 10.3521 23.979C9.96358 23.6039 9.74534 23.0952 9.74534 22.5647C9.7503 22.1883 9.86518 21.8209 10.0768 21.5047C10.3092 21.545 10.5449 21.5651 10.7811 21.5647C11.0557 21.5647 11.3192 21.4594 11.5134 21.2719C11.7077 21.0843 11.8168 20.83 11.8168 20.5648C11.8168 20.2995 11.7077 20.0452 11.5134 19.8576C11.3192 19.6701 11.0557 19.5648 10.7811 19.5648C10.5364 19.5661 10.2938 19.522 10.0664 19.4348C9.69392 19.305 9.36773 19.075 9.1265 18.7718C8.88526 18.4686 8.7391 18.105 8.70531 17.724C8.67152 17.3431 8.75153 16.9608 8.93586 16.6224C9.12019 16.284 9.40111 16.0037 9.74534 15.8148C9.89252 15.9455 10.052 16.0627 10.2218 16.1648C10.4608 16.2974 10.7445 16.3329 11.0106 16.2635C11.2767 16.1941 11.5034 16.0255 11.6407 15.7948C11.778 15.564 11.8148 15.29 11.743 15.0331C11.6711 14.7762 11.4965 14.5574 11.2575 14.4248C11.1117 14.3471 10.9901 14.2331 10.9053 14.0948C10.8096 13.9342 10.7663 13.7495 10.7811 13.5648C10.7811 13.2995 10.8902 13.0452 11.0844 12.8576C11.2786 12.6701 11.5421 12.5648 11.8168 12.5648C11.8889 12.555 11.9621 12.555 12.0343 12.5648C12.0891 12.7254 12.1548 12.8824 12.2311 13.0348C12.2987 13.1493 12.3892 13.2499 12.4973 13.3306C12.6053 13.4112 12.7289 13.4705 12.8608 13.5049C12.9927 13.5393 13.1303 13.5481 13.2657 13.5309C13.4012 13.5138 13.5318 13.4709 13.65 13.4048C13.8796 13.2714 14.0467 13.0572 14.1163 12.8073C14.1858 12.5575 14.1523 12.2913 14.0228 12.0648C13.9359 11.9114 13.8897 11.7396 13.8882 11.5648C13.8882 11.2995 13.9973 11.0452 14.1916 10.8576C14.3858 10.6701 14.6492 10.5648 14.9239 10.5648C15.1986 10.5648 15.462 10.6701 15.6563 10.8576C15.8505 11.0452 15.9596 11.2995 15.9596 11.5648V15.1148ZM23.9243 19.4348C23.6969 19.522 23.4543 19.5661 23.2096 19.5648C22.9349 19.5648 22.6715 19.6701 22.4773 19.8576C22.283 20.0452 22.1739 20.2995 22.1739 20.5648C22.1739 20.83 22.283 21.0843 22.4773 21.2719C22.6715 21.4594 22.9349 21.5647 23.2096 21.5647C23.4458 21.5651 23.6815 21.545 23.9139 21.5047C24.1255 21.8209 24.2404 22.1883 24.2453 22.5647C24.2453 23.0952 24.0271 23.6039 23.6386 23.979C23.2502 24.354 22.7233 24.5647 22.1739 24.5647C21.6851 24.5652 21.2118 24.3987 20.8378 24.0948C20.6263 23.925 20.3537 23.8433 20.0798 23.8677C19.8059 23.8921 19.5533 24.0205 19.3775 24.2247C19.2017 24.429 19.1171 24.6922 19.1424 24.9567C19.1676 25.2211 19.3006 25.465 19.5121 25.6348C19.6695 25.7561 19.8356 25.8664 20.0093 25.9648C19.9291 26.1421 19.7974 26.2931 19.6301 26.3996C19.4628 26.5061 19.2671 26.5635 19.0668 26.5648C18.7921 26.5648 18.5286 26.4594 18.3344 26.2719C18.1402 26.0843 18.0311 25.83 18.0311 25.5648V23.5647C18.0334 23.1554 18.1657 22.7567 18.4102 22.4222C18.6546 22.0878 18.9995 21.8339 19.3982 21.6947C19.6592 21.6099 19.8745 21.4284 19.9969 21.1902C20.1192 20.9521 20.1386 20.6767 20.0507 20.4248C19.9628 20.1728 19.7748 19.9649 19.5282 19.8467C19.2815 19.7286 18.9963 19.7099 18.7353 19.7948C18.4921 19.8832 18.2566 19.9902 18.0311 20.1148V18.5648C18.0334 18.1554 18.1657 17.7567 18.4102 17.4222C18.6546 17.0878 18.9995 16.8339 19.3982 16.6948C19.5274 16.6527 19.6468 16.5865 19.7495 16.5C19.8522 16.4134 19.9363 16.3082 19.9969 16.1902C20.0575 16.0723 20.0934 15.944 20.1026 15.8127C20.1119 15.6813 20.0942 15.5495 20.0507 15.4248C20.0072 15.3 19.9386 15.1847 19.849 15.0856C19.7593 14.9864 19.6503 14.9052 19.5282 14.8467C19.406 14.7882 19.2731 14.7535 19.1371 14.7446C19.0011 14.7357 18.8646 14.7527 18.7353 14.7948C18.4921 14.8832 18.2566 14.9902 18.0311 15.1148V11.5648C18.0311 11.2995 18.1402 11.0452 18.3344 10.8576C18.5286 10.6701 18.7921 10.5648 19.0668 10.5648C19.3415 10.5648 19.6049 10.6701 19.7991 10.8576C19.9934 11.0452 20.1025 11.2995 20.1025 11.5648C20.101 11.7396 20.0547 11.9114 19.9678 12.0648C19.8989 12.1783 19.8539 12.3038 19.8354 12.4342C19.8168 12.5646 19.8251 12.6972 19.8597 12.8245C19.8944 12.9518 19.9547 13.0712 20.0372 13.1759C20.1198 13.2806 20.2229 13.3686 20.3407 13.4348C20.4589 13.5009 20.5895 13.5438 20.725 13.5609C20.8604 13.5781 20.998 13.5693 21.1299 13.5349C21.2618 13.5005 21.3853 13.4412 21.4934 13.3606C21.6015 13.2799 21.692 13.1793 21.7596 13.0648C21.8372 12.9027 21.9029 12.7356 21.9564 12.5648C22.0286 12.555 22.1018 12.555 22.1739 12.5648C22.4486 12.5648 22.712 12.6701 22.9063 12.8576C23.1005 13.0452 23.2096 13.2995 23.2096 13.5648C23.208 13.7608 23.1468 13.952 23.0336 14.1148C22.9489 14.2445 22.8312 14.3512 22.6918 14.4248C22.4528 14.5574 22.2782 14.7762 22.2063 15.0331C22.1344 15.29 22.1712 15.564 22.3086 15.7948C22.4459 16.0255 22.6726 16.1941 22.9387 16.2635C23.2048 16.3329 23.4885 16.2974 23.7275 16.1648C23.9134 16.0677 24.0872 15.9502 24.2453 15.8148C24.5908 16.0004 24.8739 16.2776 25.0615 16.6136C25.249 16.9496 25.333 17.3304 25.3036 17.711C25.2742 18.0917 25.1326 18.4562 24.8955 18.7616C24.6584 19.0671 24.3358 19.3006 23.9657 19.4348H23.9243Z" fill="#FBD00A"/>
<defs>
<linearGradient id="paint0_linear_2_14" x1="13.3374" y1="-21.6992" x2="17.7832" y2="36.438" gradientUnits="userSpaceOnUse">
<stop stop-color="#F5ECBA"/>
<stop offset="1" stop-color="white" stop-opacity="0.26"/>
</linearGradient>
</defs>
</svg>
