<svg width="15" height="15" viewBox="0 0 15 15" fill="none" xmlns="http://www.w3.org/2000/svg">
<path fill-rule="evenodd" clip-rule="evenodd" d="M0.553776 7.725C0.553776 5.80881 1.31498 3.9711 2.66993 2.61615C4.02488 1.2612 5.86259 0.5 7.77878 0.5C9.69496 0.5 11.5327 1.2612 12.8876 2.61615C14.2426 3.9711 15.0038 5.80881 15.0038 7.725C15.0038 9.64119 14.2426 11.4789 12.8876 12.8338C11.5327 14.1888 9.69496 14.95 7.77878 14.95C5.86259 14.95 4.02488 14.1888 2.66993 12.8338C1.31498 11.4789 0.553776 9.64119 0.553776 7.725ZM7.36647 10.8173L11.5261 5.61723L10.7747 5.01611L7.22775 9.4484L4.71538 7.35508L4.09884 8.09492L7.36647 10.8183V10.8173Z" fill="#0E9B46" fill-opacity="0.8"/>
</svg>
